#!OML:ASF H:\Terrain\Patient Classification 1\Walking\steve\steve.ASF
:FULLY-SPECIFIED
:DEGREES
1
root 8.6732 15.3502 -35.602 8.56515 -2.84629 -2.12483
lowerback 2.32611 2.06379 3.07133
upperback -2.38372 2.95754 2.22166
thorax -3.72409 1.42161 0.408527
lowerneck -9.99586 -1.46338 -3.32534
upperneck 14.231 -1.86552 2.69095
head 6.00991 -0.876597 1.2469
rclavicle 1.21259e-014 1.19271e-014
rhumerus -40.4351 -6.84044 -78.9442
rradius 28.5317
rwrist 2.15243
rhand -25.0376 -39.4943
rfingers 7.12502
rthumb 1.47529 -69.469
lclavicle 1.21259e-014 1.19271e-014
lhumerus -33.8797 -13.4994 94.4531
lradius 41.4044
lwrist 16.6003
lhand -25.0722 -15.1822
lfingers 7.12502
lthumb 1.44186 14.7927
rfemur -25.8661 5.95505 26.5001
rtibia 41.9468
rfoot -22.6928 10.2104
rtoes 0.0307185
lfemur -28.6449 7.11942 -21.018
ltibia 66.1269
lfoot -12.407 0.873462
ltoes -13.4933
2
root 8.68865 15.3647 -35.3272 8.44912 -2.99122 -2.61088
lowerback 2.57427 2.16645 3.59348
upperback -2.29271 3.12582 2.24469
thorax -3.74281 1.49136 0.125041
lowerneck -9.95728 -1.5453 -3.20709
upperneck 14.1406 -1.98569 2.62718
head 5.9768 -0.933682 1.19749
rclavicle 1.29707e-014 4.77083e-015
rhumerus -39.4264 -4.7517 -80.7359
rradius 30.1773
rwrist 0.279596
rhand -24.9236 -39.8389
rfingers 7.12502
rthumb 1.58536 -69.8128
lclavicle 1.29707e-014 4.77083e-015
lhumerus -34.7573 -12.6788 94.2712
lradius 39.3665
lwrist 15.6475
lhand -25.0259 -15.7823
lfingers 7.12502
lthumb 1.48652 14.1922
rfemur -24.1394 5.74186 27.0584
rtibia 41.0309
rfoot -22.9327 10.7782
rtoes 1.38771
lfemur -30.4738 7.11787 -20.5697
ltibia 65.3384
lfoot -14.9796 6.70408
ltoes -30.8176
3
root 8.69525 15.3761 -35.0724 8.8197 -2.54348 -3.04467
lowerback 2.4986 2.12313 3.96795
upperback -2.36333 3.08481 2.30469
thorax -3.75926 1.46083 -0.0171036
lowerneck -9.8352 -1.56086 -2.91158
upperneck 13.9482 -2.03588 2.5076
head 5.89245 -0.952349 1.10762
rclavicle 3.27995e-014 1.03368e-014
rhumerus -38.4432 -3.41531 -81.8194
rradius 31.8766
rwrist 0.438249
rhand -24.002 -42.2147
rfingers 7.12502
rthumb 2.47542 -72.1801
lclavicle 3.27995e-014 1.03368e-014
lhumerus -35.4304 -12.0531 94.1492
lradius 37.239
lwrist 14.9154
lhand -25.0812 -15.8736
lfingers 7.12502
lthumb 1.43319 14.1014
rfemur -23.0032 5.09499 27.6057
rtibia 40.108
rfoot -23.292 11.2202
rtoes 2.94257
lfemur -32.9433 6.5948 -20.1124
ltibia 64.1814
lfoot -15.1517 2.16423
ltoes -18.138
4
root 8.70345 15.3726 -34.7995 8.92703 -2.68532 -3.16189
lowerback 2.49201 2.27518 3.99491
upperback -2.35025 3.28548 2.23383
thorax -3.73078 1.55953 -0.114885
lowerneck -9.6524 -1.58249 -2.90132
upperneck 13.8445 -2.10785 2.75868
head 5.83288 -0.969393 1.18052
rclavicle -1.04362e-014 1.43125e-014
rhumerus -37.658 -1.60291 -83.0389
rradius 33.6624
rwrist -0.0646491
rhand -24.8695 -43.8949
rfingers 7.12502
rthumb 1.63762 -73.8684
lclavicle -1.04362e-014 1.43125e-014
lhumerus -36.2413 -11.5211 94.0064
lradius 35.2658
lwrist 14.4326
lhand -25.1534 -15.211
lfingers 7.12502
lthumb 1.36344 14.7644
rfemur -21.6097 4.41342 27.8165
rtibia 39.1782
rfoot -23.3855 11.9503
rtoes 2.37324
lfemur -34.6774 6.47384 -20.0495
ltibia 62.798
lfoot -15.9322 0.455999
ltoes -11.1951
5
root 8.70839 15.373 -34.5196 8.95918 -2.92758 -3.14254
lowerback 2.4924 2.40395 3.83077
upperback -2.27429 3.4437 2.1328
thorax -3.65015 1.64335 -0.134214
lowerneck -9.70687 -1.6363 -3.02872
upperneck 13.8671 -2.1937 2.98158
head 5.85564 -1.0006 1.26467
rclavicle -3.54334e-014 -1.59028e-014
rhumerus -36.8613 0.517851 -84.4441
rradius 35.5287
rwrist -1.4563
rhand -26.3828 -44.2827
rfingers 7.12502
rthumb 0.176041 -74.2624
lclavicle -3.54334e-014 -1.59028e-014
lhumerus -37.0157 -10.5866 93.5346
lradius 33.4219
lwrist 13.7609
lhand -24.7418 -14.6719
lfingers 7.12502
lthumb 1.76094 15.3006
rfemur -20.098 3.86043 27.8513
rtibia 38.2408
rfoot -23.6345 12.4781
rtoes 0.423745
lfemur -36.1503 6.44203 -20.1543
ltibia 61.0897
lfoot -16.9033 1.13734
ltoes -13.3088
6
root 8.71568 15.396 -34.2419 9.03743 -3.09609 -3.30905
lowerback 2.56172 2.46745 3.86919
upperback -2.26908 3.53393 2.13509
thorax -3.67942 1.68673 -0.160949
lowerneck -9.83372 -1.67603 -3.17651
upperneck 14.0233 -2.23345 3.04327
head 5.93019 -1.02161 1.30464
rclavicle 3.27995e-015 5.56597e-015
rhumerus -36.1661 2.4178 -85.4704
rradius 37.4342
rwrist -2.15072
rhand -26.1183 -44.5106
rfingers 7.12502
rthumb 0.431478 -74.4899
lclavicle 3.27995e-015 5.56597e-015
lhumerus -37.699 -9.18701 92.9089
lradius 31.2955
lwrist 12.6356
lhand -23.95 -14.5384
lfingers 7.12502
lthumb 2.52561 15.4264
rfemur -18.4918 3.54316 27.9392
rtibia 37.3068
rfoot -23.74 13.3671
rtoes 0.907836
lfemur -37.5533 6.63435 -20.0628
ltibia 58.9678
lfoot -17.2729 2.28671
ltoes -16.5871
7
root 8.72954 15.4208 -33.9623 9.14876 -3.24049 -3.61933
lowerback 2.65329 2.56923 4.16791
upperback -2.34933 3.69188 2.14175
thorax -3.79289 1.75432 -0.334218
lowerneck -9.80949 -1.64937 -3.24061
upperneck 14.1915 -2.21861 3.22023
head 5.98102 -1.00423 1.37284
rclavicle 3.39922e-014 1.59028e-015
rhumerus -35.7637 4.24543 -86.2687
rradius 39.5915
rwrist -2.67086
rhand -25.3395 -44.8182
rfingers 7.12502
rthumb 1.18368 -74.7947
lclavicle 3.39922e-014 1.59028e-015
lhumerus -38.3525 -7.80724 92.2106
lradius 28.8086
lwrist 11.1752
lhand -23.2565 -15.3697
lfingers 7.12502
lthumb 3.19535 14.5861
rfemur -16.9048 2.97943 28.1355
rtibia 36.2736
rfoot -23.5895 14.1984
rtoes 1.78326
lfemur -38.7789 6.75185 -19.7759
ltibia 56.5086
lfoot -17.8869 2.5433
ltoes -14.4268
8
root 8.74291 15.425 -33.6814 9.22156 -3.42534 -3.82619
lowerback 2.74377 2.72872 4.36305
upperback -2.39549 3.91861 2.07055
thorax -3.86717 1.85853 -0.533239
lowerneck -9.60188 -1.74104 -3.1295
upperneck 14.0322 -2.36155 3.21259
head 5.89864 -1.07049 1.34165
rclavicle 3.97569e-016 2.34566e-014
rhumerus -35.3226 5.80548 -86.9867
rradius 41.9051
rwrist -3.10168
rhand -24.5405 -44.7957
rfingers 7.12502
rthumb 1.95538 -74.7665
lclavicle 3.97569e-016 2.34566e-014
lhumerus -38.9545 -6.56958 91.3175
lradius 26.3489
lwrist 9.54734
lhand -22.7742 -16.798
lfingers 7.12502
lthumb 3.66113 13.1503
rfemur -15.3384 2.17842 28.2578
rtibia 35.0845
rfoot -23.4274 15.0448
rtoes 2.69467
lfemur -39.7775 6.58473 -19.482
ltibia 53.74
lfoot -18.6511 2.21766
ltoes -9.7986
9
root 8.75589 15.4193 -33.4003 9.27744 -3.68199 -4.01306
lowerback 2.85796 2.91597 4.47808
upperback -2.4114 4.17883 1.98875
thorax -3.9245 1.98194 -0.70155
lowerneck -9.3841 -1.89161 -2.97871
upperneck 13.7197 -2.57529 3.13054
head 5.76734 -1.17545 1.27529
rclavicle 5.11871e-014 7.95139e-015
rhumerus -34.6927 7.09596 -87.5213
rradius 43.7159
rwrist -2.39091
rhand -23.0401 -42.3359
rfingers 7.12502
rthumb 3.40435 -72.2885
lclavicle 5.11871e-014 7.95139e-015
lhumerus -39.4221 -4.90782 90.0477
lradius 23.8889
lwrist 7.17894
lhand -23.7758 -19.6487
lfingers 7.12502
lthumb 2.69385 10.314
rfemur -13.6688 1.29928 28.3574
rtibia 33.751
rfoot -22.9767 16.2871
rtoes 5.00208
lfemur -40.6608 6.20885 -19.0695
ltibia 50.7824
lfoot -18.862 2.78844
ltoes -10.8126
10
root 8.7695 15.4339 -33.1126 9.44718 -3.9085 -4.19868
lowerback 2.62797 3.05618 4.54007
upperback -2.31796 4.3491 1.98615
thorax -3.68542 2.07134 -0.730523
lowerneck -9.46718 -1.79076 -2.79172
upperneck 13.6515 -2.46957 3.17178
head 5.7549 -1.11083 1.2653
rclavicle -6.90777e-015 -1.31198e-014
rhumerus -33.8877 8.68927 -87.9191
rradius 45.2399
rwrist -1.9349
rhand -22.5801 -38.348
rfingers 7.12502
rthumb 3.84858 -68.293
lclavicle -6.90777e-015 -1.31198e-014
lhumerus -39.5981 -2.22378 88.1907
lradius 21.2646
lwrist 3.67883
lhand -27.0024 -26.5397
lfingers 7.12502
lthumb -0.422393 3.43958
rfemur -12.0005 0.484267 28.3871
rtibia 32.3001
rfoot -22.0699 17.377
rtoes 6.87862
lfemur -41.5645 5.81425 -18.6061
ltibia 47.6384
lfoot -18.4806 4.25187
ltoes -15.4794
11
root 8.78443 15.4645 -32.8232 9.677 -4.03166 -4.37156
lowerback 2.36734 3.13772 4.64893
upperback -2.32516 4.44529 1.97851
thorax -3.53307 2.11976 -0.787023
lowerneck -9.2246 -1.80701 -2.8397
upperneck 13.3337 -2.47199 3.10271
head 5.61379 -1.12286 1.2529
rclavicle 3.37934e-015 -2.66371e-014
rhumerus -33.3427 10.3785 -88.3577
rradius 47.5097
rwrist -3.28476
rhand -24.7243 -36.2741
rfingers 7.12502
rthumb 1.77781 -66.2464
lclavicle 3.37934e-015 -2.66371e-014
lhumerus -40.2253 0.495447 86.0484
lradius 19.0399
lwrist 0.139453
lhand -25.3431 -16.0267
lfingers 7.12502
lthumb 1.18018 13.9498
rfemur -10.348 -0.0962441 28.3146
rtibia 30.755
rfoot -20.9946 18.0081
rtoes 6.37702
lfemur -42.3691 5.60626 -18.2132
ltibia 44.3181
lfoot -17.8361 5.219
ltoes -18.4407
12
root 8.80284 15.4842 -32.537 9.76516 -4.25079 -4.59544
lowerback 2.47394 3.21456 4.82552
upperback -2.42614 4.56668 1.96443
thorax -3.67888 2.17051 -0.914295
lowerneck -9.11062 -1.77906 -2.89258
upperneck 13.3086 -2.44372 3.20868
head 5.58746 -1.10532 1.29785
rclavicle 2.55935e-014 1.94809e-014
rhumerus -32.9851 11.9626 -88.8063
rradius 49.9221
rwrist -4.6029
rhand -22.5731 -39.5213
rfingers 7.12502
rthumb 3.85538 -69.4662
lclavicle 2.55935e-014 1.94809e-014
lhumerus -41.2402 3.6449 83.3067
lradius 17.0381
lwrist -4.04494
lhand -24.2677 -13.7244
lfingers 7.12502
lthumb 2.21881 16.2438
rfemur -8.56195 -0.682963 28.249
rtibia 29.1631
rfoot -19.9818 18.7625
rtoes 5.46434
lfemur -42.8231 5.23528 -17.5773
ltibia 40.8896
lfoot -17.5512 5.75711
ltoes -20.7264
